<svg id="visual" viewBox="0 0 900 600" width="900" height="600" xmlns="http://www.w3.org/2000/svg" xmlns:xlink="http://www.w3.org/1999/xlink" version="1.1"><rect width="900" height="600" fill="#001829"></rect><g><g transform="translate(672 560)"><path d="M0 -144.1L124.8 -72L124.8 72L0 144.1L-124.8 72L-124.8 -72Z" fill="none" stroke="#08304d" stroke-width="8"></path></g><g transform="translate(356 279)"><path d="M0 -78L67.5 -39L67.5 39L0 78L-67.5 39L-67.5 -39Z" fill="none" stroke="#08304d" stroke-width="8"></path></g><g transform="translate(680 107)"><path d="M0 -85L73.6 -42.5L73.6 42.5L0 85L-73.6 42.5L-73.6 -42.5Z" stroke="#08304d" fill="none" stroke-width="8"></path></g><g transform="translate(57 185)"><path d="M0 -105L90.9 -52.5L90.9 52.5L0 105L-90.9 52.5L-90.9 -52.5Z" stroke="#08304d" fill="none" stroke-width="8"></path></g><g transform="translate(52 551)"><path d="M0 -89L77.1 -44.5L77.1 44.5L0 89L-77.1 44.5L-77.1 -44.5Z" stroke="#08304d" fill="none" stroke-width="8"></path></g><g transform="translate(893 320)"><path d="M0 -84L72.7 -42L72.7 42L0 84L-72.7 42L-72.7 -42Z" stroke="#08304d" fill="none" stroke-width="8"></path></g></g></svg>